<mxfile host="app.diagrams.net" modified="2022-09-23T05:48:04.464Z" agent="5.0 (Windows NT 10.0; Win64; x64) AppleWebKit/537.36 (KHTML, like Gecko) Chrome/86.0.4240.198 Safari/537.36" etag="p4VWgFHxA4uk6XefaDuY" version="20.3.3" type="github">
  <diagram id="DWNHWwYdhY_TpBj45JCR" name="第 1 页">
    <mxGraphModel dx="1422" dy="771" grid="1" gridSize="10" guides="1" tooltips="1" connect="1" arrows="1" fold="1" page="1" pageScale="1" pageWidth="1827" pageHeight="1569" math="0" shadow="0">
      <root>
        <mxCell id="0" />
        <mxCell id="1" parent="0" />
        <mxCell id="w6PQZcsBQY26OfxpyrA7-1" value="s3模式" style="shape=umlFrame;whiteSpace=wrap;html=1;" vertex="1" parent="1">
          <mxGeometry x="430" y="1035" width="950" height="210" as="geometry" />
        </mxCell>
        <mxCell id="w6PQZcsBQY26OfxpyrA7-2" value="APP" style="shape=umlLifeline;perimeter=lifelinePerimeter;whiteSpace=wrap;html=1;container=1;collapsible=0;recursiveResize=0;outlineConnect=0;" vertex="1" parent="1">
          <mxGeometry x="480" y="90" width="100" height="1400" as="geometry" />
        </mxCell>
        <mxCell id="w6PQZcsBQY26OfxpyrA7-3" value="8.点击影片详情" style="html=1;verticalAlign=bottom;endArrow=block;labelBackgroundColor=#FFFFFF;curved=1;" edge="1" parent="w6PQZcsBQY26OfxpyrA7-2" source="w6PQZcsBQY26OfxpyrA7-29">
          <mxGeometry width="80" relative="1" as="geometry">
            <mxPoint x="-50" y="575" as="sourcePoint" />
            <mxPoint x="50" y="575" as="targetPoint" />
          </mxGeometry>
        </mxCell>
        <mxCell id="w6PQZcsBQY26OfxpyrA7-4" value="" style="html=1;points=[];perimeter=orthogonalPerimeter;" vertex="1" parent="w6PQZcsBQY26OfxpyrA7-2">
          <mxGeometry x="45" y="712" width="10" height="40" as="geometry" />
        </mxCell>
        <mxCell id="w6PQZcsBQY26OfxpyrA7-5" value="&lt;span style=&quot;background-color: rgb(255, 255, 0);&quot;&gt;4. 根据metaKey解密敏感信息并展示&lt;/span&gt;" style="edgeStyle=orthogonalEdgeStyle;html=1;align=left;spacingLeft=2;endArrow=block;rounded=0;entryX=1;entryY=0;labelBackgroundColor=#FFFFFF;curved=1;" edge="1" parent="w6PQZcsBQY26OfxpyrA7-2" target="w6PQZcsBQY26OfxpyrA7-4">
          <mxGeometry relative="1" as="geometry">
            <mxPoint x="50" y="692" as="sourcePoint" />
            <Array as="points">
              <mxPoint x="80" y="692" />
            </Array>
          </mxGeometry>
        </mxCell>
        <mxCell id="w6PQZcsBQY26OfxpyrA7-6" value="" style="html=1;points=[];perimeter=orthogonalPerimeter;" vertex="1" parent="w6PQZcsBQY26OfxpyrA7-2">
          <mxGeometry x="45" y="1205" width="10" height="40" as="geometry" />
        </mxCell>
        <mxCell id="w6PQZcsBQY26OfxpyrA7-7" value="13. 播放" style="edgeStyle=orthogonalEdgeStyle;html=1;align=left;spacingLeft=2;endArrow=block;rounded=0;entryX=1;entryY=0;labelBackgroundColor=#FFFFFF;curved=1;" edge="1" parent="w6PQZcsBQY26OfxpyrA7-2" target="w6PQZcsBQY26OfxpyrA7-6">
          <mxGeometry x="0.0667" y="10" relative="1" as="geometry">
            <mxPoint x="50" y="1185" as="sourcePoint" />
            <Array as="points">
              <mxPoint x="80" y="1185" />
            </Array>
            <mxPoint as="offset" />
          </mxGeometry>
        </mxCell>
        <mxCell id="w6PQZcsBQY26OfxpyrA7-8" value="14. 上报播放数据" style="html=1;verticalAlign=bottom;endArrow=block;labelBackgroundColor=#FFFFFF;curved=1;" edge="1" parent="w6PQZcsBQY26OfxpyrA7-2">
          <mxGeometry width="80" relative="1" as="geometry">
            <mxPoint x="51" y="1305" as="sourcePoint" />
            <mxPoint x="819.5" y="1305" as="targetPoint" />
          </mxGeometry>
        </mxCell>
        <mxCell id="w6PQZcsBQY26OfxpyrA7-56" value="" style="html=1;points=[];perimeter=orthogonalPerimeter;" vertex="1" parent="w6PQZcsBQY26OfxpyrA7-2">
          <mxGeometry x="45" y="430" width="10" height="40" as="geometry" />
        </mxCell>
        <mxCell id="w6PQZcsBQY26OfxpyrA7-57" value="6. APP端解密敏感数据&lt;br&gt;&amp;nbsp; (1) 使用shareKey解密出metakey&lt;br&gt;&amp;nbsp; (2) 使用metaKey解密出meta数据" style="edgeStyle=orthogonalEdgeStyle;html=1;align=left;spacingLeft=2;endArrow=block;rounded=0;entryX=1;entryY=0;" edge="1" target="w6PQZcsBQY26OfxpyrA7-56" parent="w6PQZcsBQY26OfxpyrA7-2">
          <mxGeometry relative="1" as="geometry">
            <mxPoint x="50" y="400" as="sourcePoint" />
            <Array as="points">
              <mxPoint x="80" y="400" />
              <mxPoint x="80" y="430" />
            </Array>
          </mxGeometry>
        </mxCell>
        <mxCell id="w6PQZcsBQY26OfxpyrA7-9" value="VOD Meta Server" style="shape=umlLifeline;perimeter=lifelinePerimeter;whiteSpace=wrap;html=1;container=1;collapsible=0;recursiveResize=0;outlineConnect=0;" vertex="1" parent="1">
          <mxGeometry x="726" y="90" width="100" height="1390" as="geometry" />
        </mxCell>
        <mxCell id="w6PQZcsBQY26OfxpyrA7-10" value="" style="html=1;points=[];perimeter=orthogonalPerimeter;" vertex="1" parent="w6PQZcsBQY26OfxpyrA7-9">
          <mxGeometry x="45" y="605" width="10" height="50" as="geometry" />
        </mxCell>
        <mxCell id="w6PQZcsBQY26OfxpyrA7-11" value="" style="html=1;points=[];perimeter=orthogonalPerimeter;" vertex="1" parent="w6PQZcsBQY26OfxpyrA7-9">
          <mxGeometry x="45" y="835" width="10" height="50" as="geometry" />
        </mxCell>
        <mxCell id="w6PQZcsBQY26OfxpyrA7-12" value="" style="html=1;points=[];perimeter=orthogonalPerimeter;" vertex="1" parent="w6PQZcsBQY26OfxpyrA7-9">
          <mxGeometry x="45" y="1014" width="10" height="31" as="geometry" />
        </mxCell>
        <mxCell id="w6PQZcsBQY26OfxpyrA7-42" value="" style="html=1;points=[];perimeter=orthogonalPerimeter;" vertex="1" parent="w6PQZcsBQY26OfxpyrA7-9">
          <mxGeometry x="45" y="210" width="10" height="40" as="geometry" />
        </mxCell>
        <mxCell id="w6PQZcsBQY26OfxpyrA7-51" value="" style="html=1;points=[];perimeter=orthogonalPerimeter;" vertex="1" parent="w6PQZcsBQY26OfxpyrA7-9">
          <mxGeometry x="45" y="310" width="10" height="60" as="geometry" />
        </mxCell>
        <mxCell id="w6PQZcsBQY26OfxpyrA7-13" value="流媒体" style="shape=umlLifeline;perimeter=lifelinePerimeter;whiteSpace=wrap;html=1;container=1;collapsible=0;recursiveResize=0;outlineConnect=0;" vertex="1" parent="1">
          <mxGeometry x="949" y="90" width="105" height="1090" as="geometry" />
        </mxCell>
        <mxCell id="w6PQZcsBQY26OfxpyrA7-14" value="" style="html=1;points=[];perimeter=orthogonalPerimeter;" vertex="1" parent="w6PQZcsBQY26OfxpyrA7-13">
          <mxGeometry x="48" y="985" width="10" height="140" as="geometry" />
        </mxCell>
        <mxCell id="w6PQZcsBQY26OfxpyrA7-15" value="11. 从s3获取播放资源" style="edgeStyle=orthogonalEdgeStyle;html=1;align=left;spacingLeft=2;endArrow=block;rounded=0;entryX=1;entryY=0;labelBackgroundColor=#FFFFFF;curved=1;" edge="1" parent="w6PQZcsBQY26OfxpyrA7-13">
          <mxGeometry relative="1" as="geometry">
            <mxPoint x="58" y="1070" as="sourcePoint" />
            <Array as="points">
              <mxPoint x="88" y="1070" />
            </Array>
            <mxPoint x="63" y="1090" as="targetPoint" />
          </mxGeometry>
        </mxCell>
        <mxCell id="w6PQZcsBQY26OfxpyrA7-16" value="前置条件" style="shape=umlFrame;whiteSpace=wrap;html=1;" vertex="1" parent="1">
          <mxGeometry x="220" y="160" width="1160" height="90" as="geometry" />
        </mxCell>
        <mxCell id="w6PQZcsBQY26OfxpyrA7-18" value="2. 根据Id获取影片详情" style="html=1;verticalAlign=bottom;endArrow=block;entryX=0;entryY=0;labelBackgroundColor=#FFFFFF;curved=1;" edge="1" parent="1" target="w6PQZcsBQY26OfxpyrA7-10">
          <mxGeometry relative="1" as="geometry">
            <mxPoint x="529.5" y="695" as="sourcePoint" />
          </mxGeometry>
        </mxCell>
        <mxCell id="w6PQZcsBQY26OfxpyrA7-19" value="3. 返回详情信息" style="html=1;verticalAlign=bottom;endArrow=open;dashed=1;endSize=8;labelBackgroundColor=#FFFFFF;curved=1;" edge="1" parent="1">
          <mxGeometry relative="1" as="geometry">
            <mxPoint x="529.5" y="745" as="targetPoint" />
            <mxPoint x="759.5" y="745" as="sourcePoint" />
          </mxGeometry>
        </mxCell>
        <mxCell id="w6PQZcsBQY26OfxpyrA7-20" value="5. 点击播放" style="html=1;verticalAlign=bottom;endArrow=block;labelBackgroundColor=#FFFFFF;curved=1;" edge="1" parent="1">
          <mxGeometry width="80" relative="1" as="geometry">
            <mxPoint x="430" y="895" as="sourcePoint" />
            <mxPoint x="530" y="895" as="targetPoint" />
          </mxGeometry>
        </mxCell>
        <mxCell id="w6PQZcsBQY26OfxpyrA7-21" value="终端用户" style="shape=umlActor;verticalLabelPosition=bottom;verticalAlign=top;html=1;" vertex="1" parent="1">
          <mxGeometry x="390" y="865" width="30" height="60" as="geometry" />
        </mxCell>
        <mxCell id="w6PQZcsBQY26OfxpyrA7-22" value="6. 获取播放资源" style="html=1;verticalAlign=bottom;endArrow=block;entryX=0;entryY=0;labelBackgroundColor=#FFFFFF;curved=1;" edge="1" parent="1" target="w6PQZcsBQY26OfxpyrA7-11">
          <mxGeometry relative="1" as="geometry">
            <mxPoint x="529.5" y="925" as="sourcePoint" />
          </mxGeometry>
        </mxCell>
        <mxCell id="w6PQZcsBQY26OfxpyrA7-23" value="7.返回播放资源" style="html=1;verticalAlign=bottom;endArrow=open;dashed=1;endSize=8;exitX=0;exitY=0.95;labelBackgroundColor=#FFFFFF;curved=1;" edge="1" parent="1" source="w6PQZcsBQY26OfxpyrA7-11">
          <mxGeometry relative="1" as="geometry">
            <mxPoint x="529.5" y="972.5" as="targetPoint" />
          </mxGeometry>
        </mxCell>
        <mxCell id="w6PQZcsBQY26OfxpyrA7-24" value="8. 请求播放" style="html=1;verticalAlign=bottom;endArrow=block;entryX=0;entryY=0;labelBackgroundColor=#FFFFFF;curved=1;" edge="1" parent="1" target="w6PQZcsBQY26OfxpyrA7-14">
          <mxGeometry relative="1" as="geometry">
            <mxPoint x="529.5" y="1075" as="sourcePoint" />
          </mxGeometry>
        </mxCell>
        <mxCell id="w6PQZcsBQY26OfxpyrA7-25" value="12. 返回stream" style="html=1;verticalAlign=bottom;endArrow=open;dashed=1;endSize=8;exitX=0;exitY=0.95;labelBackgroundColor=#FFFFFF;curved=1;" edge="1" parent="1" source="w6PQZcsBQY26OfxpyrA7-14">
          <mxGeometry relative="1" as="geometry">
            <mxPoint x="529.5" y="1208" as="targetPoint" />
          </mxGeometry>
        </mxCell>
        <mxCell id="w6PQZcsBQY26OfxpyrA7-26" value="9. 获取资源地址等信息" style="html=1;verticalAlign=bottom;endArrow=block;entryX=1;entryY=0;labelBackgroundColor=#FFFFFF;curved=1;" edge="1" parent="1">
          <mxGeometry relative="1" as="geometry">
            <mxPoint x="991" y="1104" as="sourcePoint" />
            <mxPoint x="766" y="1104" as="targetPoint" />
          </mxGeometry>
        </mxCell>
        <mxCell id="w6PQZcsBQY26OfxpyrA7-27" value="10. 返回资源信息" style="html=1;verticalAlign=bottom;endArrow=open;dashed=1;endSize=8;exitX=1;exitY=0.95;labelBackgroundColor=#FFFFFF;curved=1;entryX=0;entryY=0.414;entryDx=0;entryDy=0;entryPerimeter=0;" edge="1" parent="1" source="w6PQZcsBQY26OfxpyrA7-12" target="w6PQZcsBQY26OfxpyrA7-14">
          <mxGeometry x="0.0044" relative="1" as="geometry">
            <mxPoint x="990" y="1133" as="targetPoint" />
            <mxPoint as="offset" />
          </mxGeometry>
        </mxCell>
        <mxCell id="w6PQZcsBQY26OfxpyrA7-28" value="大数据" style="shape=umlLifeline;perimeter=lifelinePerimeter;whiteSpace=wrap;html=1;container=1;collapsible=0;recursiveResize=0;outlineConnect=0;" vertex="1" parent="1">
          <mxGeometry x="1250" y="90" width="100" height="1390" as="geometry" />
        </mxCell>
        <mxCell id="w6PQZcsBQY26OfxpyrA7-29" value="" style="shape=umlLifeline;participant=umlActor;perimeter=lifelinePerimeter;whiteSpace=wrap;html=1;container=1;collapsible=0;recursiveResize=0;verticalAlign=top;spacingTop=36;outlineConnect=0;" vertex="1" parent="1">
          <mxGeometry x="290" y="90" width="20" height="1170" as="geometry" />
        </mxCell>
        <mxCell id="w6PQZcsBQY26OfxpyrA7-41" value="1. 用户点击VOD标签页" style="html=1;verticalAlign=bottom;endArrow=block;rounded=0;" edge="1" parent="w6PQZcsBQY26OfxpyrA7-29" target="w6PQZcsBQY26OfxpyrA7-2">
          <mxGeometry width="80" relative="1" as="geometry">
            <mxPoint x="10" y="190" as="sourcePoint" />
            <mxPoint x="90" y="190" as="targetPoint" />
          </mxGeometry>
        </mxCell>
        <mxCell id="w6PQZcsBQY26OfxpyrA7-30" value="终端用户" style="text;html=1;strokeColor=none;fillColor=none;align=center;verticalAlign=middle;whiteSpace=wrap;rounded=0;" vertex="1" parent="1">
          <mxGeometry x="270" y="50" width="60" height="30" as="geometry" />
        </mxCell>
        <mxCell id="w6PQZcsBQY26OfxpyrA7-32" value="用户登录成功，并成功获取到shareKey" style="text;html=1;strokeColor=none;fillColor=none;align=left;verticalAlign=middle;whiteSpace=wrap;rounded=0;" vertex="1" parent="1">
          <mxGeometry x="270" y="200" width="840" height="30" as="geometry" />
        </mxCell>
        <mxCell id="w6PQZcsBQY26OfxpyrA7-43" value="2. 调用playlistRoot接口获取playlist信息" style="html=1;verticalAlign=bottom;endArrow=block;entryX=0;entryY=0;rounded=0;" edge="1" target="w6PQZcsBQY26OfxpyrA7-42" parent="1" source="w6PQZcsBQY26OfxpyrA7-2">
          <mxGeometry relative="1" as="geometry">
            <mxPoint x="685" y="300" as="sourcePoint" />
          </mxGeometry>
        </mxCell>
        <mxCell id="w6PQZcsBQY26OfxpyrA7-44" value="3. 返回playlist树" style="html=1;verticalAlign=bottom;endArrow=open;dashed=1;endSize=8;exitX=0;exitY=0.95;rounded=0;" edge="1" source="w6PQZcsBQY26OfxpyrA7-42" parent="1" target="w6PQZcsBQY26OfxpyrA7-2">
          <mxGeometry relative="1" as="geometry">
            <mxPoint x="685" y="376" as="targetPoint" />
          </mxGeometry>
        </mxCell>
        <mxCell id="w6PQZcsBQY26OfxpyrA7-52" value="4. 调用batchPlaylist接口获取meta列表" style="html=1;verticalAlign=bottom;endArrow=block;entryX=0;entryY=0;rounded=0;" edge="1" target="w6PQZcsBQY26OfxpyrA7-51" parent="1" source="w6PQZcsBQY26OfxpyrA7-2">
          <mxGeometry relative="1" as="geometry">
            <mxPoint x="685" y="380" as="sourcePoint" />
          </mxGeometry>
        </mxCell>
        <mxCell id="w6PQZcsBQY26OfxpyrA7-53" value="5. 返回meta列表信息&lt;br&gt;&amp;nbsp; (1) 每条meta包含所使用的metaKeyId&lt;br&gt;&amp;nbsp; (2) 由shareKey加密保护的metaKey列表" style="html=1;verticalAlign=bottom;endArrow=open;dashed=1;endSize=8;exitX=0;exitY=0.95;rounded=0;align=left;" edge="1" source="w6PQZcsBQY26OfxpyrA7-51" parent="1" target="w6PQZcsBQY26OfxpyrA7-2">
          <mxGeometry x="0.9069" relative="1" as="geometry">
            <mxPoint x="685" y="456" as="targetPoint" />
            <mxPoint as="offset" />
          </mxGeometry>
        </mxCell>
        <mxCell id="w6PQZcsBQY26OfxpyrA7-59" value="7. 展示VOD列表页" style="html=1;verticalAlign=bottom;endArrow=open;dashed=1;endSize=8;rounded=0;" edge="1" parent="1" target="w6PQZcsBQY26OfxpyrA7-29">
          <mxGeometry relative="1" as="geometry">
            <mxPoint x="530" y="580" as="sourcePoint" />
            <mxPoint x="450" y="580" as="targetPoint" />
          </mxGeometry>
        </mxCell>
      </root>
    </mxGraphModel>
  </diagram>
</mxfile>
